<?xml version="1.0" encoding="UTF-8" standalone="no"?>
<!DOCTYPE svg PUBLIC "-//W3C//DTD SVG 1.1//EN" "http://www.w3.org/Graphics/SVG/1.1/DTD/svg11.dtd">
<svg width="100%" height="100%" viewBox="0 0 64 64" version="1.1" xmlns="http://www.w3.org/2000/svg" xmlns:xlink="http://www.w3.org/1999/xlink" xml:space="preserve" xmlns:serif="http://www.serif.com/" style="fill-rule:evenodd;clip-rule:evenodd;stroke-linecap:round;">
    <g transform="matrix(-1,0,0,1,64,-6)">
        <path d="M37,38C41.311,39.466 46.244,58.978 52,58" style="fill:none;fill-rule:nonzero;stroke:rgb(139,92,246);stroke-width:3px;"/>
    </g>
    <g transform="matrix(-1,0,0,1,69,-4)">
        <path d="M39,38C40.311,42.466 42.667,59.333 50,58" style="fill:none;fill-rule:nonzero;stroke:rgb(105,59,209);stroke-width:3px;"/>
    </g>
    <g transform="matrix(1,0,0,1,-5,-4)">
        <path d="M39,38C40.311,42.466 42.667,59.333 50,58" style="fill:none;fill-rule:nonzero;stroke:rgb(105,59,209);stroke-width:3px;"/>
    </g>
    <g transform="matrix(-1,0,0,1,64,-6)">
        <path d="M41,36C47.333,40.667 51.333,53.333 60,54" style="fill:none;fill-rule:nonzero;stroke:rgb(167,139,250);stroke-width:3px;"/>
    </g>
    <g transform="matrix(1,0,0,1,0,-6)">
        <path d="M37,38C41.311,39.466 46.244,58.978 52,58" style="fill:none;fill-rule:nonzero;stroke:rgb(139,92,246);stroke-width:3px;"/>
    </g>
    <g transform="matrix(1,0,0,1,0,-6)">
        <path d="M41,36C47.333,40.667 51.333,53.333 60,54" style="fill:none;fill-rule:nonzero;stroke:rgb(167,139,250);stroke-width:3px;"/>
    </g>
    <g transform="matrix(1,0,0,1,0,-6)">
        <circle cx="32" cy="28" r="12" style="fill:rgb(167,139,250);"/>
    </g>
    <g transform="matrix(0.6,0,0,0.666667,8.8,1.333333)">
        <ellipse cx="32" cy="28" rx="5" ry="6" style="fill:rgb(30,27,46);"/>
    </g>
    <g transform="matrix(0.6,0,0,0.666667,16.8,1.333333)">
        <ellipse cx="32" cy="28" rx="5" ry="6" style="fill:rgb(30,27,46);"/>
    </g>
    <g transform="matrix(1.032258,0,0,0.5,6.709677,7)">
        <rect x="9" y="10" width="31" height="4" style="fill:rgb(111,74,74);"/>
    </g>
    <g transform="matrix(0.645161,0,0,1.75,16.193548,-11.5)">
        <rect x="9" y="10" width="31" height="4" style="fill:rgb(111,74,74);"/>
    </g>
    <g transform="matrix(2.857143,0,0,2,-9.428571,-7)">
        <rect x="11" y="8" width="7" height="1"/>
    </g>
</svg>
