<?xml version="1.0" encoding="UTF-8" standalone="no"?>
<!DOCTYPE svg PUBLIC "-//W3C//DTD SVG 1.1//EN" "http://www.w3.org/Graphics/SVG/1.1/DTD/svg11.dtd">
<svg width="100%" height="100%" viewBox="0 0 723 814" version="1.1" xmlns="http://www.w3.org/2000/svg" xmlns:xlink="http://www.w3.org/1999/xlink" xml:space="preserve" xmlns:serif="http://www.serif.com/" style="fill-rule:evenodd;clip-rule:evenodd;stroke-linejoin:round;stroke-miterlimit:2;">
    <g transform="matrix(1,0,0,1,-161.474556,-96.335914)">
        <g transform="matrix(2.926529,0,0,2.926529,-940.368473,-986.144761)">
            <path d="M484.5,371.4L484.446,371.125C493.176,369.419 512.142,369.921 520.571,372.129C529,374.336 543.55,381.861 550.876,387.781C562.917,397.415 572.954,412.868 577.469,428.522C580.781,439.863 580.781,460.136 577.469,471.378C575.06,479.91 570.44,489.747 566.425,495.068C565.534,496.274 564.84,497.022 564.745,497.987C564.683,498.615 564.885,499.33 565.433,500.327C566.892,502.983 570.735,507.494 578.715,517.02C601.24,543.75 609.447,555.465 616.355,570.482C623.708,586.335 625.085,602.513 621.22,614.72C618.63,622.9 613.689,629.301 606.62,632.653C597.12,637.201 583.478,635.372 576.505,628.601L576.503,628.6C569.478,621.675 568.048,617.77 561.625,585.555L561.625,585.554C556.129,557.674 551.433,538.787 546.737,525.896L546.736,525.894L543.75,517.515L540.343,519.541L540.335,519.546C538.731,520.428 537.256,521.246 536.679,521.537C536.646,521.554 536.615,521.569 536.587,521.583C536.705,522.361 537.428,525.17 538.369,528.422L538.37,528.425C545.388,553.687 544.679,582.158 536.66,601.706C534.053,608.123 529.24,617.246 526.332,621.557L526.329,621.562C524.159,624.62 523.474,627.088 523.08,631.822C522.672,637.327 522.149,638.648 519.498,641.298C515.854,644.943 510.972,646.309 505.033,645.195L505.032,645.195C504.606,645.113 504.21,644.921 503.883,644.636C502.529,643.455 501.653,642.638 500.949,642.191C500.536,641.929 500.195,641.801 499.84,641.827C499.472,641.854 499.096,642.041 498.624,642.368C497.841,642.909 496.828,643.825 495.28,645.115C490.951,648.723 486.291,647.88 482.713,644.777C479.184,641.716 476.72,636.433 476.72,631.1L476.72,631.08L477.153,625.134C476.952,625.128 476.723,625.056 476.468,624.903C475.513,624.33 474.049,622.507 472.063,619.35C467.652,612.433 462.739,601.206 459.531,590.48L459.53,590.477C457.525,583.457 457.22,580.548 457.22,564C457.22,547.16 457.522,544.454 459.928,534.931L459.929,534.93C461.432,529.116 462.837,523.703 463.137,522.902L463.14,522.896C463.268,522.576 463.185,522.234 462.929,521.863C462.466,521.191 461.474,520.458 459.967,519.647L459.965,519.646L456.254,517.604L453.264,525.994L453.263,525.996C448.667,538.587 442.972,561.372 437.875,587.653L437.875,587.654C435.372,600.371 432.465,613.288 431.262,616.3C427.12,627.511 418.632,634.171 407.522,634.98C400.046,635.586 394.491,634.167 389.036,630.227C380.972,624.381 376.72,614.208 376.72,600.6C376.72,588.055 378.924,579.924 385.649,566.375L385.65,566.373C392.457,552.959 401.465,540.344 420.685,517.42C429.066,507.443 433.06,502.805 434.569,500.149C435.133,499.155 435.341,498.462 435.277,497.861C435.23,497.422 435.037,497.038 434.756,496.622C434.448,496.167 434.038,495.679 433.576,495.069C429.561,489.748 424.94,479.911 422.531,471.378C419.219,460.136 419.219,439.864 422.531,428.522C430.96,399.121 454.843,377.045 484.445,371.125L484.5,371.4ZM480.843,420.432L480.841,420.431C474.156,415.911 463.347,418.382 458.432,425.558C456.86,427.867 456.106,431.258 456.143,434.672C456.18,438.089 457.01,441.533 458.632,443.943C460.942,447.334 464.853,449.59 469.006,450.438C473.155,451.285 477.551,450.728 480.841,448.469L480.844,448.467C483.696,446.549 485.546,444.808 486.677,442.669C487.809,440.529 488.22,437.993 488.22,434.5C488.22,431.006 487.809,428.471 486.677,426.318C485.545,424.166 483.696,422.4 480.843,420.432ZM535.9,420.1L535.761,420.344C530.751,417.495 523.383,417.583 519.158,420.432C516.305,422.4 514.455,424.166 513.323,426.318C512.191,428.471 511.78,431.006 511.78,434.5C511.78,438.695 512.129,441.632 513.672,444.158C514.699,445.84 516.254,447.337 518.574,448.91L518.576,448.911C521.424,450.875 523.572,450.815 528.482,450.52C533.743,450.176 537.706,448.492 540.251,445.554C542.795,442.616 543.914,438.432 543.52,433.121C543.029,426.734 540.97,423.292 535.762,420.344L535.9,420.1ZM428.5,613.6L428.231,613.519C429.123,610.547 429.718,605.693 429.52,602.819L429.52,602.816L429.288,598.718L428.358,600.91C427.32,603.352 425.148,605.87 422.938,607.492C421.433,608.596 419.906,609.28 418.7,609.28C417.471,609.28 415.008,608.37 413.164,607.345L413.152,607.338C412.293,606.804 411.608,606.433 411.06,606.278C410.754,606.191 410.5,606.171 410.289,606.253C409.966,606.378 409.772,606.729 409.621,607.306C409.353,608.333 409.28,610.014 409.28,612.5C409.28,617.61 410.353,620.56 413.104,623.508C415.548,626.095 418.542,626.212 421.297,624.415C424.129,622.568 426.704,618.743 428.231,613.521L428.5,613.6ZM576.427,607.12C575.005,606.004 572.871,603.366 571.754,601.335L571.751,601.328L570.36,598.621L570.28,603.103C570.221,612.361 573.739,620.523 578.031,623.963C579.419,625.076 580.886,625.689 582.336,625.655C583.777,625.621 585.194,624.944 586.492,623.512L586.493,623.511C589.638,620.07 590.72,617.416 590.72,612.6C590.72,610.078 590.647,608.374 590.379,607.332C590.227,606.744 590.033,606.387 589.708,606.258C589.498,606.175 589.245,606.193 588.939,606.279C588.392,606.434 587.707,606.804 586.848,607.338L586.842,607.342C584.737,608.574 582.988,609.181 581.346,609.155C579.69,609.13 578.134,608.466 576.427,607.12ZM499.991,589.718C500.003,589.712 500.032,589.697 500.051,589.683C500.12,589.635 500.196,589.562 500.282,589.467C500.579,589.14 500.959,588.583 501.402,587.848C504.427,582.827 510.233,569.651 511.828,563.43L511.829,563.43C513.324,557.648 513.92,551.967 514.02,542.597L514.02,542.596L514.215,529.979L499.598,529.88L484.993,529.782L485.58,542.988L485.58,542.989C485.979,553.358 486.776,558.444 488.77,565.423C490.763,572.36 495.945,583.827 498.704,588.136C499.105,588.762 499.451,589.234 499.728,589.51C499.806,589.587 499.877,589.648 499.941,589.688C499.96,589.7 499.976,589.714 499.991,589.718ZM477.802,624.854L479.342,628.254C480.082,629.188 480.811,629.848 481.642,630.224C482.613,630.663 483.72,630.709 485.133,630.379C486.602,630.036 488.39,629.292 490.675,628.149L490.677,628.148C494.246,626.403 500.924,620.47 502.945,617.608C503.183,617.272 503.354,616.982 503.44,616.749C503.464,616.685 503.481,616.627 503.489,616.574C503.37,616.595 503.174,616.634 502.981,616.691C501.931,617.003 499.971,617.782 497.815,618.756L497.812,618.757C495.166,619.909 493.235,620.535 491.82,620.61C490.807,620.664 490.042,620.441 489.454,619.951C488.84,619.438 488.417,618.621 488.13,617.474C487.52,615.34 487.797,613.908 490.237,607.402L490.242,607.39C490.299,607.257 490.341,607.143 490.368,607.047C490.278,607.089 490.16,607.15 490.05,607.222C489.535,607.565 488.755,608.22 487.691,609.206C484.471,612.186 481.716,615.488 480.028,618.254C478.93,620.053 478.28,621.614 478.28,622.7C478.28,623.53 478.187,624.138 478.015,624.52C477.954,624.655 477.883,624.765 477.802,624.854Z" style="fill:#ebdbb2;fill-rule:nonzero;stroke:#ebdbb2;stroke-width:1px;"/>
        </g>
    </g>
</svg>
